# xmcd
#
# Track frame offsets:
#	150
#	28224
#	61020
#	98361
#	121369
#	159540
#	198294
#	230125
#	269115
#	298381
#	330141
#
# Disc length: 4768 seconds
# Revision: 0
# Processed by: cddbd v1.5.2PL0 Copyright (c) Steve Scherf et al.
# Submitted via: dBpowerAMP V12.0
#
DISCID=9c129e0b
DTITLE=Geoff Achison and The Souldiggers - 20th Annniversary Concert 1994-2014
DYEAR=1900
DGENRE=Blues
TTITLE0=Tell Me Something I Don't Know
TTITLE1=Crazy Horse
TTITLE2=Rule The World
TTITLE3=Natch'l Fax
TTITLE4=Adam and Eve
TTITLE5=Jungle
TTITLE6=One Ticket, One Ride
TTITLE7=Magic Belt (Superhero)
TTITLE8=Help Yourself
TTITLE9=Living In Fear
TTITLE10=Be Careful What You Wish For
EXTD=
EXTT0=
EXTT1=
EXTT2=
EXTT3=
EXTT4=
EXTT5=
EXTT6=
EXTT7=
EXTT8=
EXTT9=
EXTT10=
PLAYORDER=
